<?xml version="1.0" standalone="no"?>
<!DOCTYPE svg PUBLIC "-//W3C//DTD SVG 20010904//EN"
 "http://www.w3.org/TR/2001/REC-SVG-20010904/DTD/svg10.dtd">
<svg version="1.0" xmlns="http://www.w3.org/2000/svg"
 width="272.002809pt" height="282.179124pt" viewBox="0 0 272.002809 282.179124"
 preserveAspectRatio="xMidYMid meet">
<metadata>
Created by potrace 1.12, written by Peter Selinger 2001-2015
</metadata>
<g transform="translate(-118.376211,398.782771) scale(0.100000,-0.100000)"
fill="#000000" stroke="none">
<path d="M2365 3979 c-151 -21 -216 -34 -295 -62 -164 -57 -291 -149 -352
-256 -18 -31 -44 -69 -58 -85 -26 -30 -132 -86 -162 -86 -25 0 -22 -21 11 -93
34 -74 77 -120 91 -97 5 8 10 22 10 32 0 18 51 64 89 81 14 6 82 11 151 12
121 0 126 1 168 29 59 40 82 81 82 147 -1 30 -7 72 -15 94 -17 48 -17 45 -6
45 13 0 86 -116 116 -185 23 -50 26 -71 23 -125 -5 -87 -29 -132 -108 -210
-55 -54 -95 -80 -230 -150 -234 -121 -326 -213 -380 -380 -40 -123 -12 -246
83 -361 101 -122 268 -179 462 -157 169 18 297 80 560 273 194 142 318 214
423 245 186 56 385 -14 449 -158 23 -54 22 -165 -4 -222 -63 -139 -219 -221
-428 -223 -49 -1 -183 2 -297 7 -228 10 -320 2 -491 -40 -304 -75 -537 -205
-753 -419 -127 -127 -208 -233 -268 -353 -74 -146 -70 -153 15 -27 61 90 235
271 324 337 176 131 344 210 577 272 164 43 246 49 558 41 484 -13 552 -7 700
67 64 32 102 60 155 114 109 111 155 220 155 370 0 238 -163 446 -400 509 -81
22 -250 19 -335 -4 -170 -48 -262 -99 -506 -282 -232 -173 -359 -228 -483
-209 -85 13 -140 73 -133 145 10 95 63 157 242 278 66 45 140 99 164 122 89
82 153 205 173 330 9 61 8 80 -10 152 -36 142 -93 207 -230 264 -43 17 -79 33
-81 35 -8 8 25 36 79 68 71 42 198 90 275 104 33 7 69 13 80 16 38 7 -130 4
-190 -5z m-449 -354 c-32 -42 -58 -57 -113 -65 -36 -6 -41 -5 -33 9 4 9 18 25
30 36 29 26 134 74 138 63 2 -5 -8 -24 -22 -43z"/>
<path d="M2220 3821 c-8 -5 -12 -12 -10 -15 3 -2 50 -19 105 -36 149 -48 289
-123 358 -191 31 -32 57 -54 57 -50 0 18 -81 131 -119 168 -23 22 -80 59 -127
83 -74 37 -94 43 -167 47 -46 2 -88 0 -97 -6z"/>
<path d="M2430 3677 c0 -2 12 -32 26 -68 39 -96 54 -162 54 -242 0 -132 -44
-299 -100 -378 -34 -47 -17 -45 24 3 55 64 93 124 118 187 19 47 22 76 23 186
0 125 -1 132 -31 196 -19 40 -45 76 -66 93 -32 24 -48 31 -48 23z"/>
<path d="M3088 3156 c-25 -6 -49 -14 -53 -17 -3 -4 45 -10 107 -13 190 -12
316 -51 443 -136 72 -49 188 -164 221 -219 10 -17 22 -31 26 -31 21 0 16 29
-16 95 -75 152 -237 274 -431 324 -51 14 -236 12 -297 -3z"/>
<path d="M3857 2428 c-18 -329 -189 -538 -512 -630 -68 -19 -103 -22 -235 -22
-85 0 -198 6 -250 13 -132 17 -375 15 -485 -4 -93 -16 -230 -53 -223 -60 2 -3
31 0 64 5 98 16 346 11 534 -10 301 -35 435 -43 536 -31 185 22 304 79 429
205 79 80 131 164 163 266 20 63 32 202 23 270 -18 135 -36 133 -44 -2z"/>
<path d="M2623 2231 c-45 -9 -85 -20 -89 -24 -10 -9 7 -9 86 3 43 7 114 6 213
-1 131 -10 228 -7 214 7 -10 11 -196 34 -267 33 -41 0 -112 -8 -157 -18z"/>
</g>
</svg>
